<?xml version="1.0" standalone="no"?>
<!DOCTYPE svg PUBLIC "-//W3C//DTD SVG 20010904//EN"
 "http://www.w3.org/TR/2001/REC-SVG-20010904/DTD/svg10.dtd">
<svg version="1.0" xmlns="http://www.w3.org/2000/svg"
 width="500.000000pt" height="500.000000pt" viewBox="0 0 500.000000 500.000000"
 preserveAspectRatio="xMidYMid meet">
<metadata>
Created by potrace 1.14, written by Peter Selinger 2001-2017
</metadata>
<g transform="translate(0.000000,500.000000) scale(0.100000,-0.100000)"
fill="#000000" stroke="none">
<path d="M2270 4893 c-490 -43 -995 -263 -1364 -593 -61 -55 -129 -123 -152
-152 -12 -15 -43 -52 -70 -83 -281 -325 -484 -804 -545 -1288 -13 -103 -17
-405 -6 -511 37 -356 145 -702 305 -976 149 -256 303 -443 501 -610 30 -25 59
-50 65 -55 31 -30 194 -141 292 -198 217 -129 529 -245 759 -281 17 -2 50 -8
74 -11 24 -4 60 -10 80 -12 20 -3 135 -7 256 -8 224 -4 295 1 475 31 180 30
477 131 650 220 153 79 303 174 409 258 63 51 225 207 303 291 126 139 303
418 365 578 13 34 28 71 33 82 54 114 130 400 156 580 18 128 25 458 12 576
-41 357 -158 724 -315 985 -32 54 -65 109 -73 123 -37 63 -97 145 -179 246
-78 95 -299 296 -416 377 -120 83 -374 228 -400 228 -2 0 -28 11 -57 24 -117
54 -351 125 -493 151 -16 2 -43 8 -60 11 -101 19 -460 29 -605 17z m397 -119
c37 -4 71 -7 76 -6 4 1 7 -1 7 -5 0 -5 17 -8 38 -8 109 -2 400 -68 537 -122
115 -45 336 -160 445 -231 119 -77 280 -212 320 -267 13 -18 12 -18 -10 1 -14
12 -83 57 -155 99 -155 93 -223 138 -290 194 -27 22 -54 41 -59 41 -6 0 4 -11
22 -23 17 -13 42 -35 56 -48 33 -33 115 -93 281 -205 76 -52 133 -94 125 -94
-16 1 -40 6 -200 40 -58 13 -120 24 -138 25 -17 1 -35 5 -39 8 -3 4 -12 2 -20
-4 -10 -9 -19 -7 -39 6 -14 9 -23 19 -20 22 7 7 -27 33 -84 65 -25 14 -81 46
-125 71 -44 26 -124 65 -178 87 -89 36 -304 94 -395 105 -20 3 -66 10 -102 15
-68 9 -428 6 -517 -5 -43 -5 -53 -4 -53 8 0 8 -7 18 -16 21 -8 3 -13 2 -9 -3
14 -23 -11 -41 -77 -56 -66 -15 -71 -15 -84 2 -7 10 -11 24 -9 31 3 7 1 11 -4
8 -5 -3 -12 1 -15 9 -5 13 -10 14 -27 5 -11 -7 -23 -9 -26 -6 -4 3 -13 -3 -21
-15 -8 -12 -20 -18 -29 -15 -17 7 -58 -32 -68 -65 -5 -14 -10 -18 -17 -11 -7
7 -4 20 8 42 16 26 17 32 5 39 -17 11 -35 5 -76 -23 -16 -12 -30 -21 -31 -21
-1 0 -4 -13 -8 -28 -4 -19 -3 -26 4 -22 5 3 10 1 10 -4 0 -22 -21 -10 -31 17
-7 15 -13 22 -16 14 -3 -6 -8 -10 -11 -8 -4 2 -15 -5 -26 -15 -18 -17 -18 -18
3 -16 11 1 21 5 21 9 0 4 5 8 11 8 5 0 8 -4 4 -9 -5 -10 21 -29 40 -29 42 -1
-39 -52 -84 -52 -12 0 -20 -4 -16 -9 3 -6 -4 -15 -15 -21 -11 -6 -20 -8 -20
-5 0 3 -9 -4 -20 -15 -11 -11 -27 -20 -36 -20 -9 0 -30 -10 -46 -22 l-31 -21
17 25 c11 17 14 32 8 48 l-8 22 -17 -26 c-10 -15 -16 -38 -15 -53 3 -22 -7
-33 -66 -75 -45 -33 -71 -46 -76 -39 -4 7 -11 2 -18 -13 -6 -13 -41 -49 -79
-79 -101 -82 -333 -343 -333 -375 0 -8 -6 -12 -15 -8 -8 3 -14 2 -12 -2 1 -4
-41 -76 -93 -160 -52 -85 -103 -170 -113 -190 -11 -21 -28 -46 -38 -58 -11
-11 -17 -23 -14 -26 7 -6 -15 -68 -24 -68 -4 0 -20 -27 -36 -60 -15 -32 -32
-57 -37 -54 -4 3 -17 25 -28 50 -22 46 -42 60 -34 22 4 -18 12 -101 16 -173 0
-5 -3 -23 -7 -40 -4 -16 -7 -43 -7 -58 1 -24 -1 -27 -12 -17 -11 8 -16 8 -22
-1 -4 -7 -3 -9 3 -6 31 19 44 -72 14 -100 -19 -18 -41 -56 -41 -69 0 -4 11 3
25 16 l25 23 -1 -39 c-2 -44 7 -200 16 -284 20 -190 54 -341 127 -555 189
-561 573 -1048 1016 -1289 265 -144 492 -236 582 -236 10 0 21 -4 24 -8 12
-19 -251 31 -369 70 -246 81 -579 278 -758 447 -31 30 -39 33 -47 21 -8 -12
-10 -9 -10 10 0 18 -20 46 -71 95 -75 74 -86 87 -177 210 -173 234 -269 431
-357 730 -10 33 -19 67 -20 75 -1 8 -9 44 -18 80 -16 67 -23 113 -36 235 -6
55 -5 72 6 78 11 7 10 11 -3 25 -15 14 -16 37 -10 197 3 99 8 198 12 220 12
87 65 334 83 393 10 34 17 62 15 62 -3 0 3 11 12 25 8 13 14 28 11 32 -3 4 18
7 46 6 36 -2 47 0 37 7 -8 5 -28 10 -43 10 -35 0 -33 8 31 140 42 85 50 95 72
92 24 -2 24 -2 6 12 -17 14 -17 19 -6 48 18 45 27 53 43 40 14 -12 27 -7 27
10 0 5 -4 7 -9 4 -5 -3 -12 1 -15 10 -7 19 80 158 94 149 5 -3 7 0 5 7 -8 21
100 156 232 291 133 137 154 156 271 245 97 74 128 80 85 15 -15 -24 -33 -43
-40 -43 -18 0 -16 -17 2 -23 9 -4 24 9 43 36 16 23 34 41 40 40 6 -2 16 6 22
18 11 20 11 20 -14 4 -24 -16 -25 -16 -22 11 3 29 18 39 201 134 110 57 278
123 340 134 22 4 80 18 128 32 108 30 248 52 387 60 58 4 106 7 107 8 5 4 161
-3 220 -10z m-797 -299 c0 -8 -3 -15 -7 -15 -5 0 -19 -3 -33 -7 l-25 -6 24 22
c28 25 41 27 41 6z m1902 -335 c24 -5 90 -19 148 -30 162 -32 202 -46 247 -88
47 -44 48 -63 8 -142 -15 -29 -28 -71 -30 -94 -2 -35 -6 -41 -28 -44 -18 -2
-32 6 -56 35 -37 45 -39 57 -8 48 17 -5 19 -4 7 4 -8 6 -24 11 -34 11 -11 0
-61 43 -115 98 -53 53 -125 119 -161 146 -36 27 -69 53 -74 58 -13 11 44 10
96 -2z m597 -350 c186 -271 315 -595 370 -928 18 -108 24 -187 25 -327 1 -288
-25 -473 -107 -765 -10 -38 -70 -140 -81 -140 -11 0 15 75 33 93 15 17 17 26
10 39 -7 13 0 57 24 155 19 76 38 167 41 203 4 36 9 85 12 110 3 25 7 63 9 85
6 50 7 383 1 410 -2 11 -7 52 -11 90 -4 39 -9 77 -10 86 -2 9 -6 34 -9 55 -12
74 -77 285 -122 398 -29 72 -80 176 -69 141 35 -113 71 -285 81 -383 3 -32 8
-66 11 -77 8 -27 11 -66 13 -165 3 -139 5 -133 -28 -100 -24 24 -31 42 -41
112 -12 91 -58 244 -89 299 -10 19 -43 81 -73 139 -29 58 -56 107 -59 110 -3
3 -16 25 -29 50 -13 25 -35 60 -48 78 -24 32 -24 34 -7 53 9 10 14 22 11 26
-4 3 3 11 16 17 30 16 50 61 50 118 1 39 -4 52 -21 64 -19 13 -28 35 -48 119
-7 30 77 -66 145 -165z m-223 -84 c3 -8 4 -25 2 -38 -3 -21 -4 -21 -21 11 -21
41 -21 41 -2 41 9 0 18 -6 21 -14z m-1627 -241 c15 -71 82 -244 158 -404 29
-62 53 -115 53 -117 0 -1 20 -46 45 -98 25 -53 45 -99 45 -102 0 -17 326 -693
513 -1064 77 -154 118 -224 144 -247 43 -39 208 -125 310 -163 l74 -26 -37
-50 c-52 -69 -260 -274 -279 -274 -9 0 -60 44 -114 99 -83 83 -98 103 -96 127
1 16 -2 35 -8 41 -5 7 -7 19 -4 26 3 8 1 20 -3 28 -8 11 -10 11 -13 -1 -3 -8
-10 -33 -17 -55 -6 -22 -10 -46 -8 -54 2 -7 -5 -15 -15 -16 -12 -2 -17 2 -16
13 5 55 -1 70 -30 74 l-29 4 -7 -98 c-4 -54 -11 -98 -16 -98 -5 0 -9 10 -9 23
0 13 -5 28 -12 35 -8 8 -8 15 2 27 12 14 13 36 10 155 -1 14 1 62 5 108 4 57
2 82 -6 82 -7 0 -10 15 -7 40 4 42 -8 57 -14 18 -2 -16 -9 -5 -23 37 -11 33
-29 69 -41 80 -23 21 -68 141 -58 156 2 4 20 11 39 15 l35 6 -32 38 c-56 64
-78 95 -78 108 0 6 -5 12 -11 12 -11 0 -9 16 5 51 5 12 -1 19 -22 27 -16 5
-45 24 -64 41 -20 17 -41 31 -47 31 -6 0 -11 3 -11 8 0 4 -10 12 -22 17 -17 8
-32 38 -64 135 -60 181 -87 225 -135 213 -46 -12 -70 -65 -144 -308 -8 -27
-18 -41 -32 -43 -11 -2 -26 -14 -33 -27 -7 -13 -39 -38 -71 -55 -54 -28 -58
-33 -46 -51 10 -17 9 -22 -5 -33 -10 -7 -18 -19 -18 -27 0 -8 -20 -41 -45 -73
-24 -33 -42 -63 -39 -68 3 -4 16 -8 30 -8 14 0 27 -7 31 -16 8 -21 -45 -142
-68 -155 -11 -5 -19 -18 -19 -29 0 -10 -4 -21 -9 -24 -4 -3 -12 -20 -15 -38
-7 -31 -8 -32 -16 -10 -14 35 -21 26 -14 -18 5 -29 3 -40 -6 -40 -7 0 -10 -7
-6 -16 3 -9 0 -24 -7 -35 -13 -18 -18 -15 -83 45 -53 50 -71 62 -82 54 -11 -9
-9 -15 10 -32 13 -12 42 -44 65 -72 35 -42 42 -59 41 -90 0 -24 -8 -46 -19
-57 -17 -16 -17 -20 -3 -50 15 -31 14 -38 -5 -103 -11 -38 -22 -80 -25 -94
-10 -59 -47 -197 -57 -215 -10 -18 -9 -18 3 -5 15 15 18 23 88 201 40 104 41
105 70 101 34 -5 37 3 14 30 -16 16 -15 18 2 24 30 11 54 46 42 61 -11 13 -3
33 13 33 6 0 7 -4 4 -10 -3 -5 -1 -10 4 -10 6 0 11 -7 11 -16 0 -13 3 -14 14
-5 11 9 21 6 45 -15 17 -14 31 -30 31 -36 0 -20 -92 -192 -132 -247 -70 -95
-122 -131 -193 -131 -28 0 -67 29 -61 45 2 7 -2 16 -10 19 -11 4 -13 18 -10
56 4 43 2 51 -11 46 -8 -3 -26 -9 -39 -12 -20 -5 -24 -12 -25 -48 0 -22 -3
-36 -5 -30 -3 7 -13 10 -22 8 -12 -3 -23 8 -36 38 l-20 42 -9 -29 c-10 -29
-11 -27 -23 34 -7 35 -11 67 -9 72 3 4 0 9 -6 11 -8 3 -7 13 5 35 24 47 20 47
-21 1 -54 -59 -147 -148 -155 -148 -32 0 -285 231 -337 308 -21 30 -21 32 -4
39 80 28 178 70 251 107 124 62 150 78 161 101 8 17 52 106 175 350 14 28 77
158 141 290 64 132 154 316 201 408 46 93 95 194 108 225 13 31 59 129 101
217 42 88 88 187 102 220 14 33 42 97 63 142 33 70 51 146 53 221 1 27 14 -6
26 -63z m2076 -947 c-2 -160 -16 -280 -31 -265 -3 2 -7 96 -9 208 -3 174 -1
207 12 222 9 9 19 17 24 17 4 0 6 -82 4 -182z m-2738 28 c-54 -15 -81 -37
-108 -86 -15 -30 -18 -32 -19 -12 0 14 17 40 45 67 39 40 50 45 87 44 l43 0
-48 -13z m537 -870 c4 -19 13 -39 21 -46 8 -7 12 -17 8 -23 -3 -5 -6 -23 -5
-38 0 -19 -4 -29 -14 -29 -20 0 -17 -20 4 -21 15 -1 15 -2 0 -6 -9 -2 -26 5
-38 17 -11 11 -25 18 -30 15 -9 -6 -5 -99 5 -116 4 -5 2 -17 -4 -26 -7 -13 -5
-23 6 -35 11 -12 13 -21 6 -30 -6 -7 -21 -41 -33 -75 -13 -35 -26 -63 -29 -63
-4 0 -32 24 -64 53 l-58 52 31 45 c37 54 79 132 83 157 16 82 24 103 53 137
19 22 34 46 34 53 0 27 18 12 24 -21z m518 -27 c34 -44 41 -62 57 -144 4 -22
31 -87 60 -143 30 -61 47 -102 39 -101 -7 1 -26 1 -42 0 -24 -1 -27 -3 -16
-16 7 -8 9 -23 5 -32 -4 -10 -6 -56 -6 -103 l1 -85 -51 150 c-28 83 -58 158
-66 167 -12 14 -13 21 -4 32 10 11 9 19 -1 37 -10 17 -10 23 0 26 7 3 12 24
12 54 0 44 -2 49 -17 41 -41 -24 -59 66 -25 132 9 19 18 33 18 32 1 0 17 -22
36 -47z m1636 -51 c11 -14 10 -43 -2 -70 -13 -29 -24 -21 -31 22 -9 53 8 78
33 48z m-67 -213 c-96 -178 -221 -348 -335 -454 -26 -25 -71 -67 -99 -93 -56
-54 -85 -66 -35 -15 18 18 42 44 53 58 10 13 59 73 107 133 73 91 233 332 247
370 6 19 44 56 57 56 6 0 17 7 24 15 28 34 19 2 -19 -70z m-2410 -79 c-6 -7
-8 -16 -5 -19 3 -3 3 -11 -2 -18 -5 -9 -10 -5 -16 11 -9 24 7 54 24 44 5 -4 5
-11 -1 -18z m903 -302 c5 -55 5 -56 -4 -14 -16 80 -21 117 -11 94 5 -11 12
-47 15 -80z m-2027 -266 c-3 -7 -5 -2 -5 12 0 14 2 19 5 13 2 -7 2 -19 0 -25z
m612 -17 c-15 -5 -22 6 -14 19 6 9 10 9 16 -1 5 -8 4 -15 -2 -18z m2241 -80
c0 -16 -153 -110 -210 -129 l-35 -12 25 20 c14 11 28 20 33 20 4 0 44 25 90
55 82 55 97 62 97 46z m-241 -26 c-22 -22 -132 -74 -143 -68 -5 3 9 15 30 26
21 12 57 30 79 42 44 23 57 23 34 0z m-71 -156 c-3 -10 -101 -49 -123 -49 -8
1 112 59 123 60 2 0 2 -5 0 -11z"/>
<path d="M2719 4748 c-8 -27 -5 -38 11 -38 25 0 36 20 19 31 -14 8 -28 12 -30
7z"/>
<path d="M2663 4724 c-7 -18 17 -38 31 -24 11 11 1 40 -14 40 -6 0 -13 -7 -17
-16z"/>
<path d="M2170 4686 c0 -9 5 -16 10 -16 6 0 10 4 10 9 0 6 -4 13 -10 16 -5 3
-10 -1 -10 -9z"/>
<path d="M1950 4671 c0 -6 5 -13 10 -16 6 -3 10 1 10 9 0 9 -4 16 -10 16 -5 0
-10 -4 -10 -9z"/>
<path d="M2444 4669 c-3 -6 -1 -16 5 -22 8 -8 11 -5 11 11 0 24 -5 28 -16 11z"/>
<path d="M2137 4663 c-4 -3 -2 -13 3 -23 5 -10 7 -19 5 -22 -2 -2 5 -4 15 -4
11 0 20 2 20 4 0 11 -38 50 -43 45z"/>
<path d="M3015 4651 c-3 -5 -1 -12 5 -16 5 -3 10 1 10 9 0 18 -6 21 -15 7z"/>
<path d="M2230 4622 c0 -5 7 -15 15 -22 8 -7 15 -9 15 -6 0 4 -7 14 -15 22 -8
9 -15 11 -15 6z"/>
<path d="M1866 4605 c-3 -8 -1 -17 3 -20 5 -3 11 2 15 10 3 8 1 17 -3 20 -5 3
-11 -2 -15 -10z"/>
<path d="M2615 4609 c-4 -6 -3 -15 3 -21 6 -6 11 -4 15 6 7 18 -9 31 -18 15z"/>
<path d="M1955 4580 c-3 -5 -2 -10 4 -10 5 0 13 5 16 10 3 6 2 10 -4 10 -5 0
-13 -4 -16 -10z"/>
<path d="M2005 4560 c-4 -6 -11 -8 -16 -5 -5 4 -9 1 -9 -4 0 -16 16 -13 30 4
7 8 10 15 7 15 -3 0 -9 -5 -12 -10z"/>
<path d="M2072 4556 c1 -10 8 -17 13 -17 15 1 12 24 -3 29 -9 3 -13 -2 -10
-12z"/>
<path d="M1530 4470 c0 -5 7 -7 15 -4 8 4 15 8 15 10 0 2 -7 4 -15 4 -8 0 -15
-4 -15 -10z"/>
<path d="M1427 4463 c-4 -3 -2 -12 4 -20 9 -10 15 -10 25 -2 8 6 14 15 14 20
0 10 -34 12 -43 2z"/>
<path d="M1319 4337 c6 -8 8 -17 4 -21 -4 -4 0 -4 10 -1 14 6 14 9 2 21 -17
18 -31 18 -16 1z"/>
<path d="M1220 4260 c-6 -11 -7 -20 -2 -20 6 0 12 9 15 20 3 11 3 20 1 20 -2
0 -8 -9 -14 -20z"/>
<path d="M1260 4195 c0 -8 6 -15 13 -15 8 0 14 7 14 15 0 8 -6 15 -14 15 -7 0
-13 -7 -13 -15z"/>
<path d="M1054 4192 c-6 -4 -13 -14 -17 -24 -8 -21 24 -30 42 -11 11 12 11 17
0 29 -8 7 -19 10 -25 6z"/>
<path d="M1150 4130 c0 -5 5 -10 10 -10 6 0 10 5 10 10 0 6 -4 10 -10 10 -5 0
-10 -4 -10 -10z"/>
<path d="M650 3630 c8 -5 20 -10 25 -10 6 0 3 5 -5 10 -8 5 -19 10 -25 10 -5
0 -3 -5 5 -10z"/>
<path d="M456 3187 c-30 -39 -32 -49 -11 -41 8 4 15 11 15 17 0 6 10 21 22 34
12 13 16 23 10 23 -6 0 -22 -15 -36 -33z"/>
<path d="M1777 1050 c-16 -19 -16 -20 2 -20 14 0 19 6 18 20 -1 11 -2 20 -2
20 0 0 -8 -9 -18 -20z"/>
<path d="M1675 1019 c-10 -15 3 -25 16 -12 7 7 7 13 1 17 -6 3 -14 1 -17 -5z"/>
<path d="M1829 969 c-8 -17 -8 -20 2 -17 7 2 13 12 15 21 3 23 -3 21 -17 -4z"/>
</g>
</svg>
